<svg width="56" height="56" viewBox="0 0 56 56" fill="none" xmlns="http://www.w3.org/2000/svg">
<path d="M56 27.8804C56 12.4826 43.5174 0 28.1196 0C12.7217 0 0.239136 12.4824 0.239136 27.8804C0.239136 41.7963 10.4347 53.3307 23.7633 55.4222V35.9396H16.6842V27.8804H23.7633V21.738C23.7633 14.7505 27.9257 10.8908 34.294 10.8908C37.3445 10.8908 40.5351 11.4353 40.5351 11.4353V18.2965H37.0195C33.5558 18.2965 32.4759 20.4457 32.4759 22.6507V27.8804H40.2084L38.9722 35.9396H32.4759V55.4222C45.8045 53.3307 56 41.7965 56 27.8804Z" fill="#1877F2"/>
<path d="M38.9722 35.9396L40.2083 27.8804H32.4759V22.6507C32.4759 20.4455 33.556 18.2965 37.0195 18.2965H40.535V11.4353C40.535 11.4353 37.3445 10.8908 34.294 10.8908C27.9257 10.8908 23.7632 14.7505 23.7632 21.738V27.8804H16.6842V35.9396H23.7632V55.4222C25.2043 55.648 26.6608 55.7613 28.1195 55.7609C29.5782 55.7613 31.0348 55.6481 32.4759 55.4222V35.9396H38.9722Z" fill="white"/>
</svg>
