<svg width="55" height="56" viewBox="0 0 55 56" fill="none" xmlns="http://www.w3.org/2000/svg">
<path d="M18.763 1.52844C13.1261 3.48393 8.26484 7.19554 4.89326 12.1181C1.52168 17.0406 -0.182488 22.9146 0.0310622 28.8772C0.244613 34.8399 2.36463 40.5769 6.07972 45.2456C9.7948 49.9143 14.9091 53.2687 20.6715 54.8159C25.3432 56.0214 30.2377 56.0743 34.9344 54.9702C39.1891 54.0145 43.1227 51.9702 46.35 49.0376C49.7089 45.8921 52.147 41.8906 53.4021 37.4633C54.7658 32.6487 55.0086 27.5857 54.1117 22.6627H27.8779V33.545H43.0707C42.7671 35.2806 42.1164 36.9372 41.1576 38.4155C40.1989 39.8938 38.9517 41.1635 37.4908 42.1486C35.6358 43.3762 33.5444 44.202 31.351 44.5727C29.1514 44.9818 26.8952 44.9818 24.6956 44.5727C22.4661 44.1123 20.357 43.1921 18.503 41.8709C15.5241 39.7622 13.2874 36.7666 12.112 33.3114C10.9171 29.7914 10.9171 25.9755 12.112 22.4556C12.9487 19.9883 14.3318 17.7418 16.1582 15.8839C18.2482 13.7186 20.8942 12.1709 23.806 11.4105C26.7177 10.6501 29.7826 10.7064 32.6645 11.5733C34.9159 12.264 36.9746 13.4715 38.6764 15.0993C40.3895 13.3951 42.0996 11.6864 43.8068 9.97333C44.6883 9.05215 45.6492 8.17504 46.5175 7.23183C43.9193 4.81436 40.8699 2.93315 37.5437 1.69592C31.4864 -0.503496 24.8586 -0.562603 18.763 1.52844Z" fill="white"/>
<path d="M18.763 1.52844C24.8581 -0.564018 31.4858 -0.506467 37.5436 1.69152C40.8704 2.93715 43.9185 4.82742 46.513 7.25387C45.6315 8.19709 44.7015 9.0786 43.8024 9.99537C42.0923 11.7026 40.3836 13.4039 38.6764 15.0993C36.9746 13.4715 34.9158 12.2641 32.6645 11.5733C29.7836 10.7034 26.7187 10.6438 23.8062 11.4011C20.8937 12.1584 18.2461 13.7033 16.1537 15.8663C14.3274 17.7242 12.9443 19.9706 12.1076 22.4379L2.9707 15.3638C6.24115 8.87833 11.9037 3.91745 18.763 1.52844Z" fill="#E33629"/>
<path d="M0.546525 22.3718C1.03726 19.9378 1.8526 17.5808 2.97069 15.3638L12.1076 22.4556C10.9126 25.9755 10.9126 29.7914 12.1076 33.3114C9.06341 35.6621 6.01778 38.0245 2.97069 40.3988C0.172547 34.829 -0.680837 28.4829 0.546525 22.3718Z" fill="#F8BD00"/>
<path d="M27.8778 22.6583H54.1116C55.0085 27.5813 54.7658 32.6443 53.402 37.4589C52.1469 41.8862 49.7088 45.8877 46.3499 49.0332C43.4013 46.7324 40.4394 44.4493 37.4907 42.1486C38.9526 41.1625 40.2003 39.8914 41.1592 38.4115C42.118 36.9316 42.7682 35.2734 43.0707 33.5362H27.8778C27.8734 29.9132 27.8778 26.2857 27.8778 22.6583Z" fill="#587DBD"/>
<path d="M2.96631 40.3988C6.01341 38.0481 9.05903 35.6856 12.1032 33.3114C13.2809 36.7678 15.5208 39.7636 18.503 41.8709C20.3627 43.186 22.4764 44.0987 24.7088 44.5507C26.9084 44.9598 29.1646 44.9598 31.3642 44.5507C33.5576 44.18 35.649 43.3542 37.504 42.1265C40.4526 44.4273 43.4145 46.7104 46.3632 49.0111C43.1364 51.9454 39.2027 53.9912 34.9476 54.9481C30.2509 56.0523 25.3564 55.9993 20.6847 54.7939C16.9899 53.8073 13.5386 52.0682 10.5473 49.6855C7.38149 47.1715 4.7956 44.0038 2.96631 40.3988Z" fill="#319F43"/>
</svg>
