<svg width="158" height="47" viewBox="0 0 158 47" fill="none" xmlns="http://www.w3.org/2000/svg">
<path d="M24.7922 29.5844V23.329H29.2715V31.995C26.9411 33.7648 23.733 34.7108 20.7064 34.7108C14.048 34.7108 9.14497 30.1031 9.14497 23.6646C9.14497 17.2261 14.048 12.6185 20.7972 12.6185C24.5199 12.6185 27.6069 13.9001 29.665 16.3107L26.5174 19.24C24.9738 17.5923 23.1882 16.8294 21.0393 16.8294C16.9232 16.8294 14.1085 19.6062 14.1085 23.6646C14.1085 27.662 16.9232 30.4998 20.9788 30.4998C22.3105 30.4998 23.5514 30.2557 24.7922 29.5844Z" fill="#D392E3"/>
<path d="M33.826 34.3446V12.9846H38.729V34.3446H33.826Z" fill="#D392E3"/>
<path d="M58.0725 29.5844V23.329H62.5518V31.995C60.2214 33.7648 57.0132 34.7108 53.9867 34.7108C47.3282 34.7108 42.4252 30.1031 42.4252 23.6646C42.4252 17.2261 47.3282 12.6185 54.0775 12.6185C57.8001 12.6185 60.8872 13.9001 62.9453 16.3107L59.7976 19.24C58.2541 17.5923 56.4684 16.8294 54.3196 16.8294C50.2035 16.8294 47.3888 19.6062 47.3888 23.6646C47.3888 27.662 50.2035 30.4998 54.2591 30.4998C55.5907 30.4998 56.8316 30.2557 58.0725 29.5844Z" fill="#D392E3"/>
<path d="M87.1647 25.7043C87.1647 27.2674 87.5045 28.5523 88.1842 29.5587C88.8638 30.5437 89.9789 31.0362 91.5293 31.0362C92.1665 31.0362 92.8249 30.9506 93.5046 30.7793C94.2054 30.608 95.0656 30.3189 96.0851 29.912L97.2639 33.2525C96.117 33.7664 95.055 34.1305 94.078 34.3446C93.1223 34.5587 92.1984 34.6658 91.3063 34.6658C89.5222 34.6658 88.0249 34.2804 86.8143 33.5095C85.6249 32.7386 84.7329 31.6786 84.1382 30.3296C83.5435 28.9805 83.2461 27.4387 83.2461 25.7043V21.1111C83.2461 19.3766 83.5435 17.8348 84.1382 16.4857C84.7329 15.1367 85.6249 14.0874 86.8143 13.3379C88.0249 12.5671 89.5222 12.1816 91.3063 12.1816C92.1771 12.1816 93.0798 12.2887 94.0143 12.5028C94.9488 12.6955 95.9683 13.0382 97.0727 13.5307L95.8939 16.9354C94.9169 16.5286 94.0992 16.2395 93.4408 16.0682C92.7824 15.8969 92.1453 15.8112 91.5293 15.8112C89.9789 15.8112 88.8638 16.3037 88.1842 17.2887C87.5045 18.2738 87.1647 19.5479 87.1647 21.1111V25.7043Z" fill="#D392E3"/>
<path d="M108.675 21.1753C108.144 21.1753 107.539 21.3038 106.859 21.5607C106.179 21.8177 105.372 22.3209 104.438 23.0704V34.3446H100.774V10.5756H104.438V20.0832C105.415 19.2481 106.328 18.6485 107.178 18.2845C108.027 17.9204 108.898 17.7384 109.79 17.7384C111.34 17.7384 112.519 18.2416 113.326 19.2481C114.133 20.2331 114.537 21.625 114.537 23.4237V34.3446H110.873V23.8734C110.873 22.0747 110.14 21.1753 108.675 21.1753Z" fill="#D392E3"/>
<path d="M131.612 34.5052C130.529 34.5052 129.659 34.2804 129 33.8307C128.363 33.381 127.896 32.8242 127.598 32.1604C126.685 33.017 125.804 33.6487 124.954 34.0555C124.105 34.4624 123.191 34.6658 122.214 34.6658C120.791 34.6658 119.74 34.2054 119.06 33.2846C118.402 32.3639 118.073 31.1968 118.073 29.7835C118.073 28.8413 118.243 28.0169 118.582 27.3103C118.943 26.5822 119.528 26.0147 120.335 25.6079C121.142 25.201 122.246 24.9976 123.648 24.9976C124.2 24.9976 124.774 25.0404 125.368 25.1261C125.963 25.1903 126.558 25.276 127.152 25.3831V23.488C127.152 22.5886 126.908 21.9783 126.42 21.6571C125.931 21.3145 125.273 21.1432 124.444 21.1432C123.807 21.1432 123.106 21.2288 122.342 21.4001C121.598 21.5714 120.791 21.8391 119.92 22.2031L118.869 19.0554C121.014 18.1774 122.958 17.7384 124.699 17.7384C126.271 17.7384 127.482 18.0061 128.331 18.5414C129.202 19.0768 129.807 19.7834 130.147 20.6614C130.487 21.5393 130.657 22.4815 130.657 23.488V29.7514C130.657 30.0726 130.742 30.3831 130.912 30.6829C131.103 30.9613 131.464 31.1005 131.995 31.1005H132.345V34.5052H131.612ZM121.609 29.7193C121.609 30.2975 121.736 30.7578 121.991 31.1005C122.246 31.4217 122.618 31.5823 123.106 31.5823C123.595 31.5823 124.147 31.4538 124.763 31.1968C125.379 30.9399 126.175 30.3403 127.152 29.3981V28.0169C126.048 27.8242 124.965 27.7278 123.903 27.7278C123.074 27.7278 122.48 27.8991 122.119 28.2418C121.779 28.5844 121.609 29.0769 121.609 29.7193Z" fill="#D392E3"/>
<path d="M139.285 14.9761H135.43V11.1538H139.285V14.9761ZM139.19 34.3446H135.526V18.0596H139.19V34.3446Z" fill="#D392E3"/>
<path d="M152.138 21.1753C151.607 21.1753 151.002 21.3038 150.322 21.5607C149.642 21.8177 148.835 22.3209 147.901 23.0704V34.3446H144.237V18.0596H147.71V20.2438C148.708 19.3659 149.653 18.7342 150.545 18.3487C151.437 17.9419 152.34 17.7384 153.253 17.7384C154.804 17.7384 155.982 18.2416 156.789 19.2481C157.596 20.2331 158 21.625 158 23.4237V34.3446H154.336V23.8734C154.336 22.0747 153.604 21.1753 152.138 21.1753Z" fill="#D392E3"/>
<path fill-rule="evenodd" clip-rule="evenodd" d="M17.7032 3.21203C14.0325 3.21203 10.375 5.19172 7.59081 8.9755C4.80032 12.7678 3.18585 17.9891 3.18585 23.5C3.18585 29.0109 4.80032 34.2322 7.59081 38.0245C8.96876 39.8971 10.5797 41.3485 12.3146 42.3252C14.0461 43.2999 15.8753 43.788 17.7032 43.788H27.3693C28.2491 43.788 28.9622 44.507 28.9622 45.394C28.9622 46.281 28.2491 47 27.3693 47H17.7032C15.2998 47 12.9392 46.3555 10.7615 45.1297C8.58725 43.9057 6.64619 42.1317 5.03219 39.9383C1.78017 35.5187 0 29.6024 0 23.5C0 17.3976 1.78017 11.4813 5.03219 7.06172C8.29049 2.63367 12.8284 0 17.7032 0H27.3693C28.2491 0 28.9622 0.719037 28.9622 1.60601C28.9622 2.49299 28.2491 3.21203 27.3693 3.21203H17.7032ZM45.1087 1.60601C45.1087 0.719037 45.8218 0 46.7016 0H56.3677C58.7711 0 61.1317 0.644491 63.3094 1.87034C65.4837 3.09427 67.4247 4.86829 69.0387 7.06172C70.6526 9.255 71.9167 11.836 72.7743 14.6498C73.6321 17.4642 74.0709 20.4705 74.0709 23.5C74.0709 26.5295 73.6321 29.5358 72.7743 32.3502C71.9167 35.164 70.6526 37.745 69.0387 39.9383C67.4247 42.1317 65.4837 43.9057 63.3094 45.1297C61.1317 46.3555 58.7711 47 56.3677 47H46.7016C45.8218 47 45.1087 46.281 45.1087 45.394C45.1087 44.507 45.8218 43.788 46.7016 43.788H56.3677C58.1956 43.788 60.0248 43.2999 61.7563 42.3252C63.4912 41.3485 65.1021 39.8971 66.4801 38.0245C67.8582 36.1517 68.9674 33.9055 69.729 31.4067C70.4904 28.9085 70.8851 26.2208 70.8851 23.5C70.8851 20.7792 70.4904 18.0915 69.729 15.5933C68.9674 13.0945 67.8582 10.8483 66.4801 8.9755C65.1021 7.10285 63.4912 5.65147 61.7563 4.67485C60.0248 3.70015 58.1956 3.21203 56.3677 3.21203H46.7016C45.8218 3.21203 45.1087 2.49299 45.1087 1.60601Z" fill="#D392E3"/>
</svg>
